<svg width="160" height="38" viewBox="0 0 160 38" fill="none" xmlns="http://www.w3.org/2000/svg">
<path d="M2 20.3154L20.1414 2.17407" stroke="#003566" stroke-width="4" stroke-linecap="round"/>
<path d="M13.8584 2L31.9998 20.1414" stroke="#003566" stroke-width="4" stroke-linecap="round"/>
<path d="M4.17383 14.3262L10.4214 31.4913" stroke="#003566" stroke-width="4" stroke-linecap="round"/>
<path d="M23.8369 31.4914L30.0845 14.3263" stroke="#003566" stroke-width="4" stroke-linecap="round"/>
<path d="M47.2 30.14C46.2267 30.14 45.3467 29.9733 44.56 29.64C43.7867 29.3067 43.1733 28.8267 42.72 28.2C42.2667 27.5733 42.0333 26.8333 42.02 25.98H45.02C45.06 26.5533 45.26 27.0067 45.62 27.34C45.9933 27.6733 46.5 27.84 47.14 27.84C47.7933 27.84 48.3067 27.6867 48.68 27.38C49.0533 27.06 49.24 26.6467 49.24 26.14C49.24 25.7267 49.1133 25.3867 48.86 25.12C48.6067 24.8533 48.2867 24.6467 47.9 24.5C47.5267 24.34 47.0067 24.1667 46.34 23.98C45.4333 23.7133 44.6933 23.4533 44.12 23.2C43.56 22.9333 43.0733 22.54 42.66 22.02C42.26 21.4867 42.06 20.78 42.06 19.9C42.06 19.0733 42.2667 18.3533 42.68 17.74C43.0933 17.1267 43.6733 16.66 44.42 16.34C45.1667 16.0067 46.02 15.84 46.98 15.84C48.42 15.84 49.5867 16.1933 50.48 16.9C51.3867 17.5933 51.8867 18.5667 51.98 19.82H48.9C48.8733 19.34 48.6667 18.9467 48.28 18.64C47.9067 18.32 47.4067 18.16 46.78 18.16C46.2333 18.16 45.7933 18.3 45.46 18.58C45.14 18.86 44.98 19.2667 44.98 19.8C44.98 20.1733 45.1 20.4867 45.34 20.74C45.5933 20.98 45.9 21.18 46.26 21.34C46.6333 21.4867 47.1533 21.66 47.82 21.86C48.7267 22.1267 49.4667 22.3933 50.04 22.66C50.6133 22.9267 51.1067 23.3267 51.52 23.86C51.9333 24.3933 52.14 25.0933 52.14 25.96C52.14 26.7067 51.9467 27.4 51.56 28.04C51.1733 28.68 50.6067 29.1933 49.86 29.58C49.1133 29.9533 48.2267 30.14 47.2 30.14ZM64.0675 16.04V18.3H60.3475V30H57.5475V18.3H53.8275V16.04H64.0675ZM74.6705 27.34H69.1105L68.1905 30H65.2505L70.2705 16.02H73.5305L78.5505 30H75.5905L74.6705 27.34ZM73.9105 25.1L71.8905 19.26L69.8705 25.1H73.9105ZM91.5269 16.04L86.8069 25.14V30H84.0069V25.14L79.2669 16.04H82.4269L85.4269 22.42L88.4069 16.04H91.5269ZM101.062 22.84C101.848 22.9867 102.495 23.38 103.002 24.02C103.508 24.66 103.762 25.3933 103.762 26.22C103.762 26.9667 103.575 27.6267 103.202 28.2C102.842 28.76 102.315 29.2 101.622 29.52C100.928 29.84 100.108 30 99.1617 30H93.1417V16.04H98.9017C99.8484 16.04 100.662 16.1933 101.342 16.5C102.035 16.8067 102.555 17.2333 102.902 17.78C103.262 18.3267 103.442 18.9467 103.442 19.64C103.442 20.4533 103.222 21.1333 102.782 21.68C102.355 22.2267 101.782 22.6133 101.062 22.84ZM95.9417 21.8H98.5017C99.1684 21.8 99.6817 21.6533 100.042 21.36C100.402 21.0533 100.582 20.62 100.582 20.06C100.582 19.5 100.402 19.0667 100.042 18.76C99.6817 18.4533 99.1684 18.3 98.5017 18.3H95.9417V21.8ZM98.7617 27.72C99.4417 27.72 99.9684 27.56 100.342 27.24C100.728 26.92 100.922 26.4667 100.922 25.88C100.922 25.28 100.722 24.8133 100.322 24.48C99.9217 24.1333 99.3817 23.96 98.7017 23.96H95.9417V27.72H98.7617ZM108.753 16.04V24.68C108.753 25.6267 109 26.3533 109.493 26.86C109.987 27.3533 110.68 27.6 111.573 27.6C112.48 27.6 113.18 27.3533 113.673 26.86C114.167 26.3533 114.413 25.6267 114.413 24.68V16.04H117.233V24.66C117.233 25.8467 116.973 26.8533 116.453 27.68C115.947 28.4933 115.26 29.1067 114.393 29.52C113.54 29.9333 112.587 30.14 111.533 30.14C110.493 30.14 109.547 29.9333 108.693 29.52C107.853 29.1067 107.187 28.4933 106.693 27.68C106.2 26.8533 105.953 25.8467 105.953 24.66V16.04H108.753ZM124.819 16.04C126.285 16.04 127.572 16.3267 128.679 16.9C129.799 17.4733 130.659 18.2933 131.259 19.36C131.872 20.4133 132.179 21.64 132.179 23.04C132.179 24.44 131.872 25.6667 131.259 26.72C130.659 27.76 129.799 28.5667 128.679 29.14C127.572 29.7133 126.285 30 124.819 30H119.939V16.04H124.819ZM124.719 27.62C126.185 27.62 127.319 27.22 128.119 26.42C128.919 25.62 129.319 24.4933 129.319 23.04C129.319 21.5867 128.919 20.4533 128.119 19.64C127.319 18.8133 126.185 18.4 124.719 18.4H122.739V27.62H124.719ZM139.155 16.04C140.621 16.04 141.908 16.3267 143.015 16.9C144.135 17.4733 144.995 18.2933 145.595 19.36C146.208 20.4133 146.515 21.64 146.515 23.04C146.515 24.44 146.208 25.6667 145.595 26.72C144.995 27.76 144.135 28.5667 143.015 29.14C141.908 29.7133 140.621 30 139.155 30H134.275V16.04H139.155ZM139.055 27.62C140.521 27.62 141.655 27.22 142.455 26.42C143.255 25.62 143.655 24.4933 143.655 23.04C143.655 21.5867 143.255 20.4533 142.455 19.64C141.655 18.8133 140.521 18.4 139.055 18.4H137.075V27.62H139.055ZM159.71 16.04L154.99 25.14V30H152.19V25.14L147.45 16.04H150.61L153.61 22.42L156.59 16.04H159.71Z" fill="#003566"/>
<path d="M41 32H159.95V33H41V32Z" fill="#003566"/>
</svg>
