<svg width="179" height="46" viewBox="0 0 179 46" fill="none" xmlns="http://www.w3.org/2000/svg">
<path d="M2 38.5185H52" stroke="#003566" stroke-width="3" stroke-linecap="round"/>
<line x1="5.54904" y1="14.815" x2="26.9642" y2="2.45099" stroke="#003566" stroke-width="3" stroke-linecap="round"/>
<line x1="26.8752" y1="2.45102" x2="48.2904" y2="14.8151" stroke="#003566" stroke-width="3" stroke-linecap="round"/>
<path d="M20.9404 24.3027H32.6922C33.7968 24.3027 34.6922 25.1982 34.6922 26.3027V38.2431H18.9404V26.3027C18.9404 25.1982 19.8359 24.3027 20.9404 24.3027Z" stroke="#003566" stroke-width="2"/>
<path d="M66.2 38.14C65.2267 38.14 64.3467 37.9733 63.56 37.64C62.7867 37.3067 62.1733 36.8267 61.72 36.2C61.2667 35.5733 61.0333 34.8333 61.02 33.98H64.02C64.06 34.5533 64.26 35.0067 64.62 35.34C64.9933 35.6733 65.5 35.84 66.14 35.84C66.7933 35.84 67.3067 35.6867 67.68 35.38C68.0533 35.06 68.24 34.6467 68.24 34.14C68.24 33.7267 68.1133 33.3867 67.86 33.12C67.6067 32.8533 67.2867 32.6467 66.9 32.5C66.5267 32.34 66.0067 32.1667 65.34 31.98C64.4333 31.7133 63.6933 31.4533 63.12 31.2C62.56 30.9333 62.0733 30.54 61.66 30.02C61.26 29.4867 61.06 28.78 61.06 27.9C61.06 27.0733 61.2667 26.3533 61.68 25.74C62.0933 25.1267 62.6733 24.66 63.42 24.34C64.1667 24.0067 65.02 23.84 65.98 23.84C67.42 23.84 68.5867 24.1933 69.48 24.9C70.3867 25.5933 70.8867 26.5667 70.98 27.82H67.9C67.8733 27.34 67.6667 26.9467 67.28 26.64C66.9067 26.32 66.4067 26.16 65.78 26.16C65.2333 26.16 64.7933 26.3 64.46 26.58C64.14 26.86 63.98 27.2667 63.98 27.8C63.98 28.1733 64.1 28.4867 64.34 28.74C64.5933 28.98 64.9 29.18 65.26 29.34C65.6333 29.4867 66.1533 29.66 66.82 29.86C67.7267 30.1267 68.4667 30.3933 69.04 30.66C69.6133 30.9267 70.1067 31.3267 70.52 31.86C70.9333 32.3933 71.14 33.0933 71.14 33.96C71.14 34.7067 70.9467 35.4 70.56 36.04C70.1733 36.68 69.6067 37.1933 68.86 37.58C68.1133 37.9533 67.2267 38.14 66.2 38.14ZM83.0675 24.04V26.3H79.3475V38H76.5475V26.3H72.8275V24.04H83.0675ZM93.6705 35.34H88.1105L87.1905 38H84.2505L89.2705 24.02H92.5305L97.5505 38H94.5905L93.6705 35.34ZM92.9105 33.1L90.8905 27.26L88.8705 33.1H92.9105ZM110.527 24.04L105.807 33.14V38H103.007V33.14L98.2669 24.04H101.427L104.427 30.42L107.407 24.04H110.527ZM120.062 30.84C120.848 30.9867 121.495 31.38 122.002 32.02C122.508 32.66 122.762 33.3933 122.762 34.22C122.762 34.9667 122.575 35.6267 122.202 36.2C121.842 36.76 121.315 37.2 120.622 37.52C119.928 37.84 119.108 38 118.162 38H112.142V24.04H117.902C118.848 24.04 119.662 24.1933 120.342 24.5C121.035 24.8067 121.555 25.2333 121.902 25.78C122.262 26.3267 122.442 26.9467 122.442 27.64C122.442 28.4533 122.222 29.1333 121.782 29.68C121.355 30.2267 120.782 30.6133 120.062 30.84ZM114.942 29.8H117.502C118.168 29.8 118.682 29.6533 119.042 29.36C119.402 29.0533 119.582 28.62 119.582 28.06C119.582 27.5 119.402 27.0667 119.042 26.76C118.682 26.4533 118.168 26.3 117.502 26.3H114.942V29.8ZM117.762 35.72C118.442 35.72 118.968 35.56 119.342 35.24C119.728 34.92 119.922 34.4667 119.922 33.88C119.922 33.28 119.722 32.8133 119.322 32.48C118.922 32.1333 118.382 31.96 117.702 31.96H114.942V35.72H117.762ZM127.753 24.04V32.68C127.753 33.6267 128 34.3533 128.493 34.86C128.987 35.3533 129.68 35.6 130.573 35.6C131.48 35.6 132.18 35.3533 132.673 34.86C133.167 34.3533 133.413 33.6267 133.413 32.68V24.04H136.233V32.66C136.233 33.8467 135.973 34.8533 135.453 35.68C134.947 36.4933 134.26 37.1067 133.393 37.52C132.54 37.9333 131.587 38.14 130.533 38.14C129.493 38.14 128.547 37.9333 127.693 37.52C126.853 37.1067 126.187 36.4933 125.693 35.68C125.2 34.8533 124.953 33.8467 124.953 32.66V24.04H127.753ZM143.819 24.04C145.285 24.04 146.572 24.3267 147.679 24.9C148.799 25.4733 149.659 26.2933 150.259 27.36C150.872 28.4133 151.179 29.64 151.179 31.04C151.179 32.44 150.872 33.6667 150.259 34.72C149.659 35.76 148.799 36.5667 147.679 37.14C146.572 37.7133 145.285 38 143.819 38H138.939V24.04H143.819ZM143.719 35.62C145.185 35.62 146.319 35.22 147.119 34.42C147.919 33.62 148.319 32.4933 148.319 31.04C148.319 29.5867 147.919 28.4533 147.119 27.64C146.319 26.8133 145.185 26.4 143.719 26.4H141.739V35.62H143.719ZM158.155 24.04C159.621 24.04 160.908 24.3267 162.015 24.9C163.135 25.4733 163.995 26.2933 164.595 27.36C165.208 28.4133 165.515 29.64 165.515 31.04C165.515 32.44 165.208 33.6667 164.595 34.72C163.995 35.76 163.135 36.5667 162.015 37.14C160.908 37.7133 159.621 38 158.155 38H153.275V24.04H158.155ZM158.055 35.62C159.521 35.62 160.655 35.22 161.455 34.42C162.255 33.62 162.655 32.4933 162.655 31.04C162.655 29.5867 162.255 28.4533 161.455 27.64C160.655 26.8133 159.521 26.4 158.055 26.4H156.075V35.62H158.055ZM178.71 24.04L173.99 33.14V38H171.19V33.14L166.45 24.04H169.61L172.61 30.42L175.59 24.04H178.71Z" fill="#003566"/>
<path d="M60 40H178.95V41H60V40Z" fill="#003566"/>
</svg>
