<svg width="50" height="50" viewBox="0 0 50 50" fill="none" xmlns="http://www.w3.org/2000/svg">
<rect width="50" height="50" rx="10" fill="#003566"/>
<path d="M19.08 32.14C18.1467 32.14 17.3067 31.98 16.56 31.66C15.8133 31.3267 15.2267 30.86 14.8 30.26C14.3733 29.66 14.16 28.96 14.16 28.16H16.6C16.6533 28.76 16.8867 29.2533 17.3 29.64C17.7267 30.0267 18.32 30.22 19.08 30.22C19.8667 30.22 20.48 30.0333 20.92 29.66C21.36 29.2733 21.58 28.78 21.58 28.18C21.58 27.7133 21.44 27.3333 21.16 27.04C20.8933 26.7467 20.5533 26.52 20.14 26.36C19.74 26.2 19.18 26.0267 18.46 25.84C17.5533 25.6 16.8133 25.36 16.24 25.12C15.68 24.8667 15.2 24.48 14.8 23.96C14.4 23.44 14.2 22.7467 14.2 21.88C14.2 21.08 14.4 20.38 14.8 19.78C15.2 19.18 15.76 18.72 16.48 18.4C17.2 18.08 18.0333 17.92 18.98 17.92C20.3267 17.92 21.4267 18.26 22.28 18.94C23.1467 19.6067 23.6267 20.5267 23.72 21.7H21.2C21.16 21.1933 20.92 20.76 20.48 20.4C20.04 20.04 19.46 19.86 18.74 19.86C18.0867 19.86 17.5533 20.0267 17.14 20.36C16.7267 20.6933 16.52 21.1733 16.52 21.8C16.52 22.2267 16.6467 22.58 16.9 22.86C17.1667 23.1267 17.5 23.34 17.9 23.5C18.3 23.66 18.8467 23.8333 19.54 24.02C20.46 24.2733 21.2067 24.5267 21.78 24.78C22.3667 25.0333 22.86 25.4267 23.26 25.96C23.6733 26.48 23.88 27.18 23.88 28.06C23.88 28.7667 23.6867 29.4333 23.3 30.06C22.9267 30.6867 22.3733 31.1933 21.64 31.58C20.92 31.9533 20.0667 32.14 19.08 32.14ZM34.0103 24.86C34.757 24.9933 35.3903 25.3867 35.9103 26.04C36.4303 26.6933 36.6903 27.4333 36.6903 28.26C36.6903 28.9667 36.5036 29.6067 36.1303 30.18C35.7703 30.74 35.2436 31.1867 34.5503 31.52C33.857 31.84 33.0503 32 32.1303 32H26.5703V18.1H31.8703C32.817 18.1 33.6303 18.26 34.3103 18.58C34.9903 18.9 35.5036 19.3333 35.8503 19.88C36.197 20.4133 36.3703 21.0133 36.3703 21.68C36.3703 22.48 36.157 23.1467 35.7303 23.68C35.3036 24.2133 34.7303 24.6067 34.0103 24.86ZM28.8503 23.94H31.6703C32.417 23.94 32.997 23.7733 33.4103 23.44C33.837 23.0933 34.0503 22.6 34.0503 21.96C34.0503 21.3333 33.837 20.8467 33.4103 20.5C32.997 20.14 32.417 19.96 31.6703 19.96H28.8503V23.94ZM31.9303 30.14C32.7036 30.14 33.3103 29.9533 33.7503 29.58C34.1903 29.2067 34.4103 28.6867 34.4103 28.02C34.4103 27.34 34.177 26.8 33.7103 26.4C33.2436 26 32.6236 25.8 31.8503 25.8H28.8503V30.14H31.9303Z" fill="white"/>
</svg>
