<svg width="20" height="20" viewBox="0 0 20 20" fill="none" xmlns="http://www.w3.org/2000/svg">
<path d="M18 18L16.4 16.4M9.6 17.2C10.598 17.2 11.5863 17.0034 12.5084 16.6215C13.4305 16.2395 14.2683 15.6797 14.974 14.974C15.6797 14.2683 16.2395 13.4305 16.6215 12.5084C17.0034 11.5863 17.2 10.598 17.2 9.6C17.2 8.60195 17.0034 7.61368 16.6215 6.69161C16.2395 5.76953 15.6797 4.93171 14.974 4.22599C14.2683 3.52026 13.4305 2.96045 12.5084 2.57852C11.5863 2.19658 10.598 2 9.6 2C7.58435 2 5.65126 2.80071 4.22599 4.22599C2.80071 5.65126 2 7.58435 2 9.6C2 11.6156 2.80071 13.5487 4.22599 14.974C5.65126 16.3993 7.58435 17.2 9.6 17.2Z" stroke="white" stroke-width="1.5" stroke-linecap="round" stroke-linejoin="round"/>
</svg>
